HIERARCHY
ROOT Hips
{
  OFFSET 0.976642 102.925 -148.961
  CHANNELS 6 Xposition Yposition Zposition Zrotation Xrotation Yrotation
  JOINT RightUpLeg
  {
    OFFSET -8.9458 -8.66707 0.101652
    CHANNELS 3 Zrotation Xrotation Yrotation
    JOINT RightLeg
    {
      OFFSET 0 -44.4227 1.3727
      CHANNELS 3 Zrotation Xrotation Yrotation
      JOINT RightFoot
      {
        OFFSET 0.253549 -42.0924 -1.46059
        CHANNELS 3 Zrotation Xrotation Yrotation
        JOINT RightToes
        {
          OFFSET 0.04 -4.41509 8.4991
          CHANNELS 3 Zrotation Xrotation Yrotation
          End Site
          {
            OFFSET -0.08 -0.137448 9.77979
          }
        }
      }
    }
  }
  JOINT Spine
  {
    OFFSET 0 11.8905 0
    CHANNELS 3 Zrotation Xrotation Yrotation
    JOINT Spine1
    {
      OFFSET 0 25.6574 0.127663
      CHANNELS 3 Zrotation Xrotation Yrotation
      JOINT HEad
      {
        OFFSET 0 8.73416 0.011341
        CHANNELS 3 Zrotation Xrotation Yrotation
        End Site
        {
          OFFSET -0.29 12.7742 2.51395
        }
      }
      JOINT LeftShoulder1
      {
        OFFSET 8.99 -0.362252 -0.22
        CHANNELS 3 Zrotation Xrotation Yrotation
        JOINT LeftArm
        {
          OFFSET 10.2827 -0.00338 0.322123
          CHANNELS 3 Zrotation Xrotation Yrotation
          JOINT LeftForeArm
          {
            OFFSET 32.7669 0.099144 -1.42434
            CHANNELS 3 Zrotation Xrotation Yrotation
            JOINT LeftHand
            {
              OFFSET 27.5643 0.085362 1.02216
              CHANNELS 3 Zrotation Xrotation Yrotation
              End Site
              {
                OFFSET 16.7443 -0.6 1.50291
              }
            }
          }
        }
      }
      JOINT RightShoulder
      {
        OFFSET -8.99 -0.362252 -0.22
        CHANNELS 3 Zrotation Xrotation Yrotation
        JOINT RightArm
        {
          OFFSET -10.2827 -0.00338 0.322123
          CHANNELS 3 Zrotation Xrotation Yrotation
          JOINT RightForeArm
          {
            OFFSET -32.8971 0.099144 -1.42434
            CHANNELS 3 Zrotation Xrotation Yrotation
            JOINT RightHand
            {
              OFFSET -27.4921 0.085362 1.02216
              CHANNELS 3 Zrotation Xrotation Yrotation
              End Site
              {
                OFFSET -16.6312 -0.6 1.50291
              }
            }
          }
        }
      }
    }
  }
  JOINT LeftUpLeg
  {
    OFFSET 8.9458 -8.66707 0.101652
    CHANNELS 3 Zrotation Xrotation Yrotation
    JOINT LeftLeg
    {
      OFFSET 0 -44.4227 1.3727
      CHANNELS 3 Zrotation Xrotation Yrotation
      JOINT LeftFoot
      {
        OFFSET -0.253549 -42.0924 -1.46059
        CHANNELS 3 Zrotation Xrotation Yrotation
        JOINT LeftToes
        {
          OFFSET -0.04 -4.41509 8.4991
          CHANNELS 3 Zrotation Xrotation Yrotation
          End Site
          {
            OFFSET 0.08 -0.047448 9.77979
          }
        }
      }
    }
  }
}
MOTION
Frames:	19
Frame Time:	0.0166667
-0.00524796 102.991 -157.662 7.10266 0.0783733 0.824785 -7.5506 6.39582 -1.1952 10.4333 37.1624 -26.6068 29.7746 -4.78839 0.0178795 0.0462048 0.000533964 0.662642 -1.51299 2.4503 -2.08969 -12.4643 -3.85842 -0.0683 5.51531 9.06296 5.44037 1.57164e-015 -1.98785e-016 9.93923e-017 -70.5041 -45.2064 14.2905 -19.8442 14.6801 -16.563 0.368473 9.90896 -0.00117926 -0.00907859 0.586699 3.43913 95.7502 -31.048 16.4244 13.7857 11.6365 -5.65789 -0.369625 9.91382 0.00119886 -14.2068 -23.9914 2.45151 -0.0980023 22.7485 2.00239 -0.850187 -8.26049 0.0299745 2.20728e-011 -5.0601e-011 -1.46003e-011 
0.2134 103.022 -155.794 7.69291 -0.172915 1.30571 -9.07401 4.91334 -1.83668 11.855 41.4256 -27.5667 29.4149 -2.59137 -0.550412 0.0462048 0.000533964 0.662642 -2.08882 2.5342 -2.07676 -13.1037 -3.37339 0.0040071 5.80294 8.95964 4.76849 2.54693e-015 -1.98785e-016 -0 -70.9221 -45.0734 13.292 -19.5213 14.6595 -16.4848 0.368473 9.90896 -0.00117926 0.264403 0.558253 2.9312 95.0345 -31.4016 15.4086 14.1314 11.6407 -5.34542 -0.369625 9.91382 0.00119886 -14.8954 -22.9292 1.82155 -0.644716 23.917 2.0776 -0.592718 -10.0971 0.0338191 -0.101915 0.470792 0.0472997 
0.429897 103.037 -153.965 8.27202 -0.415517 1.68161 -10.491 3.26449 -2.46517 13.0196 45.6702 -28.5298 29.0945 -0.234819 -1.15 0.0462048 0.000533964 0.662642 -2.68974 2.62147 -2.0414 -13.6738 -2.89065 0.0771544 6.04675 8.78952 4.24635 -6.11496e-016 0 -0 -71.3909 -44.8531 12.2716 -19.274 14.6458 -16.4406 0.368473 9.90896 -0.00117926 0.481479 0.532221 2.49014 94.4001 -31.763 14.4865 14.4038 11.6469 -5.07465 -0.369625 9.91382 0.00119886 -15.5176 -21.8939 1.38844 -1.13106 25.0259 2.10199 -0.366822 -11.8406 0.0384408 -0.207392 0.831324 0.0734836 
0.652021 102.999 -152.241 8.83594 -0.64997 1.73608 -11.5829 1.11877 -3.20809 12.6837 50.0574 -28.7979 28.7775 3.2746 -2.01693 0.0462048 0.000533964 0.662642 -3.38688 2.73274 -1.93498 -14.048 -2.39447 0.156409 6.16917 8.3876 4.19728 9.78782e-016 4.96962e-017 -0 -71.996 -44.423 11.2359 -19.2548 14.6514 -16.4908 0.368473 9.90896 -0.00117926 0.49185 0.512946 2.26111 94.0531 -32.169 13.8381 14.4596 11.6616 -4.91408 -0.369625 9.91382 0.00119886 -16.0507 -20.9355 1.50006 -1.4259 25.9824 1.98595 -0.238685 -13.3175 0.0444774 -0.348072 0.825785 0.0199115 
0.847843 102.95 -150.58 9.3262 -0.840568 1.69811 -12.4749 -1.19572 -3.64792 12.3102 54.2016 -29.0105 28.6192 5.59078 -2.58991 0.0462048 0.000533964 0.662642 -4.06784 2.81961 -1.81362 -14.3231 -1.94127 0.229675 6.24356 7.9906 4.24823 1.88117e-015 2.48481e-017 -9.93923e-017 -72.6717 -43.8321 10.0913 -19.3092 14.6677 -16.5906 0.368473 9.90896 -0.00117926 0.523663 0.497469 2.07612 93.7581 -32.5772 13.3313 14.436 11.6752 -4.82503 -0.369625 9.91382 0.00119886 -16.4721 -20.0303 1.82944 -1.64755 26.8272 1.77682 -0.136804 -14.6762 0.0528737 -0.438527 0.780575 -0.0220139 
0.976642 102.925 -148.961 9.67431 -0.935991 1.73689 -13.1036 -3.44755 -3.24751 13.6018 57.7256 -29.8226 28.7121 3.61331 -2.09343 0.0462048 0.000533964 0.662642 -4.63805 2.82297 -1.71855 -14.5511 -1.6028 0.283898 6.29721 7.83573 4.09392 -2.83948e-015 -6.21202e-017 -0 -73.348 -43.0593 8.73463 -19.3195 14.6905 -16.715 0.368473 9.90896 -0.00117926 0.81883 0.487354 1.81024 93.2898 -32.9618 12.8867 14.4299 11.6762 -4.81162 -0.369625 9.91382 0.00119886 -16.6956 -19.1797 2.15957 -1.91763 27.5641 1.51349 -0.00177378 -16.0075 0.0653327 -0.368246 0.997152 0.044054 
1.07256 102.91 -147.388 9.91746 -0.983294 1.81538 -13.5027 -5.69609 -2.47941 15.4281 60.5646 -30.9218 28.8385 0.616642 -1.34789 0.0462048 0.000533964 0.662642 -5.11277 2.79566 -1.64585 -14.737 -1.31732 0.327265 6.3718 7.75295 3.85586 2.17421e-017 4.96962e-017 -0 -74.0902 -42.1722 7.22122 -19.3276 14.7189 -16.8646 0.368473 9.90896 -0.00117926 1.18483 0.473221 1.47953 92.8232 -33.3008 12.5227 14.4188 11.6755 -4.81406 -0.369625 9.91382 0.00119886 -16.818 -18.3541 2.53659 -2.1077 28.211 1.13693 0.137118 -17.3104 0.080421 -0.245086 1.29453 0.144662 
1.1611 102.909 -145.868 10.0439 -1.01285 1.9345 -13.7438 -7.95487 -1.59309 17.1106 62.4963 -32.1756 28.6012 -0.633111 -1.02647 0.0462048 0.000533964 0.662642 -5.42901 2.78038 -1.61022 -14.8804 -1.043 0.362491 6.51079 7.61054 3.58359 2.00959e-015 -9.93923e-017 -3.97569e-016 -75.023 -41.2808 5.49103 -19.3271 14.7394 -16.9765 0.368473 9.90896 -0.00117926 1.42825 0.444357 1.06107 92.5732 -33.5673 12.2809 14.3653 11.6843 -4.77858 -0.369625 9.91382 0.00119886 -16.8814 -17.5216 3.00869 -2.07464 28.7748 0.51426 0.266247 -18.6628 0.0966377 -0.195209 1.63258 0.225193 
1.22749 102.903 -144.378 10.1319 -1.02337 2.14951 -13.8599 -10.1132 -0.712521 18.4852 63.6655 -33.2317 28.3137 -1.69705 -0.750569 0.0462048 0.000533964 0.662642 -5.72812 2.74852 -1.59702 -15.0513 -0.791797 0.392891 6.7357 7.53057 3.18825 9.47333e-016 0 1.98785e-016 -75.9286 -40.2399 3.76064 -19.3453 14.7851 -17.2168 0.368473 9.90896 -0.00117926 1.79256 0.406273 0.54696 92.1955 -33.7483 12.013 14.4119 11.6901 -4.6912 -0.369625 9.91382 0.00119886 -16.9594 -16.6915 3.35485 -1.97763 29.2887 -0.0971486 0.397725 -19.918 0.115861 -0.0505371 1.89023 0.325464 
1.25794 102.86 -142.899 10.2837 -1.02698 2.56203 -13.9785 -12.0345 -0.149775 19.027 64.1587 -33.5799 28.2433 -3.40258 -0.32576 0.0462048 0.000533964 0.662642 -6.18032 2.67833 -1.59522 -15.3681 -0.540495 0.4277 7.1323 7.62632 2.51388 2.0158e-015 9.93923e-017 -0 -76.5848 -38.8697 2.26607 -19.4218 14.897 -17.8052 0.368473 9.90896 -0.00117926 2.57448 0.359841 -0.124689 91.2742 -33.8048 11.5216 14.7594 11.6809 -4.49119 -0.369625 9.91382 0.00119886 -17.1642 -15.8763 3.21169 -2.01253 29.8269 -0.344204 0.528357 -20.8805 0.137578 0.459257 1.84437 0.503095 
1.27498 102.813 -141.432 10.4158 -1.01363 3.03395 -14.057 -13.8129 0.384805 19.007 63.985 -33.5341 28.2819 -5.18846 0.118099 0.0462048 0.000533964 0.662642 -6.63596 2.59189 -1.60877 -15.6857 -0.352741 0.451868 7.56359 7.79125 1.80964 2.53761e-015 9.93923e-017 -0 -77.1484 -37.4354 0.878157 -19.5055 15.0315 -18.5201 0.368473 9.90896 -0.00117926 3.42048 0.308275 -0.814761 90.2341 -33.7822 10.9919 15.1965 11.666 -4.26505 -0.369625 9.91382 0.00119886 -17.3672 -15.0367 3.07016 -1.96198 30.2874 -0.629397 0.690058 -21.7753 0.167266 0.904967 1.76096 0.649898 
1.30123 102.782 -139.978 10.4725 -0.976807 3.43445 -14.0447 -15.5084 1.09834 18.5786 63.1598 -33.347 28.3986 -6.7742 0.516978 0.0462048 0.000533964 0.662642 -6.98834 2.50853 -1.63889 -15.8858 -0.294249 0.451271 7.9006 7.9412 1.31963 -3.10601e-017 -1.98785e-016 -0 -77.7677 -36.2056 -0.504233 -19.5329 15.1563 -19.1931 0.368473 9.90896 -0.00117926 4.02256 0.254237 -1.38816 89.4206 -33.7061 10.579 15.5544 11.6507 -4.09798 -0.369625 9.91382 0.00119886 -17.5021 -14.131 3.44925 -1.57318 30.5809 -1.38263 0.951077 -22.8361 0.2172 1.01801 2.07391 0.753729 
1.32261 102.768 -138.527 10.4704 -0.918308 3.84332 -13.9679 -17.0807 1.94684 17.9403 61.7241 -33.1085 28.5614 -8.14478 0.865893 0.0462048 0.000533964 0.662642 -7.27898 2.41483 -1.68268 -16.0059 -0.335596 0.43235 8.18787 8.1262 0.905273 1.6423e-015 7.45443e-017 -3.97569e-016 -78.3364 -34.9757 -1.79123 -19.5908 15.2877 -19.8815 0.368473 9.90896 -0.00117926 4.54321 0.200422 -1.89474 88.6524 -33.6059 10.176 15.906 11.6358 -3.93307 -0.369625 9.91382 0.00119886 -17.5948 -13.1829 3.87447 -1.1145 30.7275 -2.18495 1.20223 -23.8418 0.26773 0.57991 2.05628 0.584309 
1.33471 102.787 -137.061 10.4184 -0.815689 4.32792 -13.8716 -18.514 2.98886 17.3882 59.6802 -32.9984 28.76 -9.15829 1.13123 0.0462048 0.000533964 0.662642 -7.52902 2.29612 -1.74059 -16.051 -0.500095 0.392276 8.44307 8.40245 0.502606 -4.19311e-016 0 3.97569e-016 -78.7522 -33.5647 -2.88043 -19.7772 15.4373 -20.6073 0.368473 9.90896 -0.00117926 5.0743 0.14785 -2.35757 87.7956 -33.5164 9.67573 16.3009 11.6231 -3.72254 -0.369625 9.91382 0.00119886 -17.6454 -12.2119 3.97899 -0.78105 30.7108 -2.72144 1.27125 -24.6597 0.28782 -1.7397 0.445617 -0.589777 
1.33108 102.82 -135.593 10.2834 -0.735125 4.79471 -13.653 -19.7898 4.12333 16.7154 57.1756 -32.99 28.8813 -9.9162 1.32917 0.0462048 0.000533964 0.662642 -7.69304 2.17555 -1.80376 -16.0017 -0.69525 0.344743 8.62266 8.66597 0.131206 -4.1869e-015 -9.93923e-017 -0 -79.1207 -32.1802 -3.89186 -19.9931 15.5856 -21.3087 0.368473 9.90896 -0.00117926 5.52007 0.10414 -2.72196 87.0496 -33.4445 9.23241 16.64 11.6147 -3.52425 -0.369625 9.91382 0.00119886 -17.5767 -11.1893 3.98091 -0.568438 30.5762 -3.0955 1.40833 -25.2575 0.320855 -2.96842 -0.71829 -1.27543 
1.29699 102.855 -134.131 10.0138 -0.77064 5.13782 -13.1755 -20.8652 5.28707 15.6958 54.3425 -33.1395 28.7258 -10.4547 1.45547 0.0462048 0.000533964 0.662642 -7.71132 2.07744 -1.86243 -15.826 -0.811424 0.305175 8.64876 8.81085 -0.205808 1.13059e-015 -1.98785e-016 7.95139e-016 -79.529 -31.0156 -4.92437 -20.1551 15.7193 -21.9352 0.368473 9.90896 -0.00117926 5.79362 0.0822701 -2.90034 86.6166 -33.4067 8.98833 16.8245 11.6153 -3.38042 -0.369625 9.91382 0.00119886 -17.2577 -10.0511 4.03167 -0.598176 30.3315 -3.27518 1.93996 -25.4516 0.423768 1.50281 1.1827 0.656572 
1.25285 102.888 -132.679 9.6836 -0.815634 5.46159 -12.6412 -21.8078 6.40489 14.6218 51.2332 -33.311 28.559 -10.8275 1.53903 0.0462048 0.000533964 0.662642 -7.64724 1.98348 -1.91969 -15.5659 -0.923337 0.265534 8.6319 8.89903 -0.521573 4.14963e-015 0 -0 -79.9456 -29.9183 -5.94214 -20.3206 15.8372 -22.4732 0.368473 9.90896 -0.00117926 5.96128 0.0671011 -3.01434 86.3487 -33.4154 8.86937 16.9025 11.6196 -3.29011 -0.369625 9.91382 0.00119886 -16.8772 -8.92236 3.95808 -0.667386 30.0685 -3.36211 2.46961 -25.563 0.526665 5.67871 3.14683 2.56782 
1.2178 102.911 -131.251 9.33119 -0.771142 5.85585 -12.2108 -22.6905 7.46297 13.8658 47.9015 -33.414 28.6351 -11.101 1.61097 0.0462048 0.000533964 0.662642 -7.54258 1.8797 -1.97128 -15.2141 -1.07965 0.220826 8.66498 8.93145 -0.828364 3.47873e-016 -5.96354e-016 1.59028e-015 -80.3953 -28.7828 -6.97979 -20.5263 15.9268 -22.8493 0.368473 9.90896 -0.00117926 6.04741 0.0430576 -3.19166 86.1601 -33.5211 8.85855 16.8639 11.627 -3.26277 -0.369625 9.91382 0.00119886 -16.595 -7.94511 3.54655 -0.560679 29.9111 -3.43793 2.62312 -25.9576 0.564923 3.74176 2.32746 1.74479 
1.18097 102.926 -129.832 9.00415 -0.708941 6.25811 -11.8835 -23.4672 8.20905 13.1198 44.4601 -33.4847 28.7998 -11.2727 1.66242 0.0462048 0.000533964 0.662642 -7.40252 1.77738 -2.02948 -14.8881 -1.2489 0.177348 8.72716 8.98507 -1.1262 3.42904e-015 7.95139e-016 -0 -80.7657 -27.6634 -7.90954 -20.7531 16.011 -23.1925 0.368473 9.90896 -0.00117926 6.08944 0.0244862 -3.32652 86.0705 -33.6216 8.92849 16.7842 11.6279 -3.30952 -0.369625 9.91382 0.00119886 -16.3278 -7.0006 3.0728 -0.436473 29.7666 -3.53053 2.66192 -26.3189 0.580674 0.935277 0.902837 0.510699 
